<?xml version="1.0" encoding="UTF-8"?>
<svg xmlns="http://www.w3.org/2000/svg" viewBox="0 0 512 512" preserveAspectRatio="xMidYMid meet">
  <defs>
    <linearGradient id="rimobyte-gradient" x1="0%" y1="0%" x2="100%" y2="100%">
      <stop offset="0%" stop-color="#196BEE" />
      <stop offset="50%" stop-color="#6535E5" />
      <stop offset="100%" stop-color="#E715D1" />
    </linearGradient>
  </defs>
  <g transform="translate(0,512) scale(0.1,-0.1)" fill="url(#rimobyte-gradient)" stroke="none">
    <path d="M1985 4778 c-22 -5 -69 -16 -105 -24 -83 -20 -230 -89 -317 -150 -87 -61 -1155 -1122 -1230 -1222 -57 -76 -126 -202 -144 -262 -5 -19 -17 -60 -26 -90 -12 -40 -16 -100 -17 -225 -1 -155 2 -179 27 -274 69 -261 230 -485 431 -603 89 -53 251 -124 300 -133 40 -8 63 -33 76 -87 28 -110 91 -232 173 -333 35 -44 147 -161 249 -260 205 -201 279 -251 438 -300 111 -35 140 -46 140 -54 0 -12 91 -144 128 -186 136 -153 282 -234 489 -270 167 -29 337 -10 478 56 140 64 171 93 940 863 460 460 765 773 789 809 255 388 210 877 -113 1229 -89 97 -184 165 -343 248 -81 42 -81 41 -93 128 -20 150 -177 272 -334 260 -112 -9 -218 -86 -268 -195 -24 -52 -25 -63 -20 -157 l6 -101 -442 -442 -442 -442 -85 6 c-108 7 -176 -16 -243 -82 -133 -131 -135 -332 -6 -463 111 -112 288 -123 422 -26 39 28 56 51 85 111 31 66 36 87 37 155 l1 80 455 453 454 453 110 5 110 6 70 -35 c100 -49 237 -155 302 -233 61 -74 114 -177 137 -266 41 -157 -3 -350 -112 -494 -38 -50 -1014 -1036 -1343 -1356 -164 -159 -221 -197 -338 -225 -111 -26 -265 12 -366 90 -76 59 -72 73 30 123 73 36 98 57 287 245 114 113 214 220 223 238 24 52 19 105 -15 152 -37 51 -76 72 -133 72 -61 0 -97 -26 -298 -221 -195 -188 -258 -230 -373 -248 -116 -19 -225 14 -355 106 -91 65 -365 344 -430 437 -30 43 -66 114 -83 159 -26 73 -29 95 -30 197 0 132 14 185 77 297 32 55 99 127 345 371 l305 302 70 0 c101 0 139 9 197 44 90 53 158 168 158 263 0 98 -63 217 -138 264 -121 76 -241 77 -358 3 -97 -61 -144 -156 -144 -294 l0 -65 -293 -293 c-310 -312 -392 -409 -451 -537 -21 -44 -42 -88 -47 -97 -5 -10 -9 -27 -9 -37 0 -32 -22 -71 -39 -71 -9 0 -42 17 -74 38 -204 136 -327 321 -348 525 -17 166 15 286 114 426 50 71 1031 1059 1117 1125 51 39 109 70 204 111 64 27 243 41 331 26 77 -13 188 -52 216 -77 8 -8 20 -14 26 -14 6 0 50 -37 97 -82 130 -127 176 -225 176 -382 0 -107 -18 -182 -66 -273 -38 -70 -50 -88 -121 -175 -57 -69 -68 -105 -53 -168 9 -39 22 -59 54 -86 39 -34 44 -36 103 -32 55 3 67 8 110 44 76 65 188 202 233 287 141 265 144 570 7 832 -136 261 -377 436 -687 500 -84 17 -329 19 -395 3z"/>
  </g>
</svg>
